<svg xmlns="http://www.w3.org/2000/svg" width="64" height="64"><path fill="#3042C6" fill-rule="evenodd" d="M31 27h-5v25h5V27z" clip-rule="evenodd"/><path fill="#32357F" fill-rule="evenodd" d="M35 27v4h5v14.4c0 1.9.3 3.5 1.4 4.6 1 1.2 2.3 1.8 4 1.8 1.7 0 3.2-.3 4.5-1.1h.1v-.1l1.1-4.7-.3.2c-1.4.8-2.4 1.2-3.6 1.2-1.6 0-2.2-.9-2.2-2.8V31h5v-4h-5v-7.9l-5 2.7V27h-5zM60 27h-5v25h5V27zM22.8 30.7l-.1-.1c-2.3-2.8-5.2-4.2-8.7-4.2-3.7 0-6.7 1.1-9.1 3.3C2.3 32.1 1 35.2 1 39.2s1.3 7.1 3.9 9.5C7.3 50.9 10.3 52 14 52c3.5 0 6.4-1.4 8.7-4.2l.1-.1-2.9-3.5-.1.1c-1.9 1.8-3.9 2.8-6 2.8-2.2 0-4.1-.8-5.5-2.3-1.5-1.5-2.2-3.4-2.2-5.7 0-2.3.7-4.2 2.2-5.7 1.5-1.5 3.3-2.2 5.5-2.2 2.1 0 4.1 1 6 2.8l.1.1 2.9-3.4z" clip-rule="evenodd"/><path fill="#EA2230" fill-rule="evenodd" d="M28.2 22.8c2-2 4.2-3.6 6.8-4.7 2.4-1.1 5-1.6 7.7-1.6s5.3.5 7.8 1.6 4.7 2.7 6.7 4.8l.1.2H63l-.2-.4c-2.3-3.2-5.3-5.9-8.9-7.7-3.6-2-7.3-3-11.2-3-3.9 0-7.7.9-11.3 2.8-3.6 1.9-6.6 4.5-8.9 7.8l-.2.4h5.8l.1-.2z" clip-rule="evenodd"/><path fill="#32357F" fill-rule="evenodd" d="m31 28.9-5-1.1V52h5V27.8z" clip-rule="evenodd"/><path fill="#3042C6" fill-rule="evenodd" d="M35 27v4h5v14.4c0 1.9.3 3.5 1.4 4.6 1 1.2 2.3 1.8 4 1.8 1.7 0 3.2-.3 4.5-1.1h.1v-.1l1.1-4.7-.3.2c-1.4.8-2.4 1.2-3.6 1.2-1.6 0-2.2-.9-2.2-2.8V31h5v-4h-5v-7.9l-5 2.7V27h-5z" clip-rule="evenodd"/><path fill="#32357F" fill-rule="evenodd" d="M35 27v4h5v14.4c0 1.9.3 3.5 1.4 4.6 1 1.2 2.3 1.8 4 1.8 1.7 0 3.2-.3 4.5-1.1h.1v-.1l1.1-4.7-.3.2c-1.4.8-2.4 1.2-3.6 1.2-1.6 0-2.2-.9-2.2-2.8V31h5v-4h-5v-3l-5-2.2V27h-5z" clip-rule="evenodd"/><path fill="#3042C6" fill-rule="evenodd" d="M60 27h-5v25h5V27z" clip-rule="evenodd"/><path fill="#32357F" fill-rule="evenodd" d="m60 27-5 1.7V52h5V27z" clip-rule="evenodd"/><path fill="#3042C6" fill-rule="evenodd" d="M22.7 30.8v-.2c-2.3-2.8-5.2-4.2-8.7-4.2-3.7 0-6.7 1.1-9.1 3.3C2.3 32.1 1 35.2 1 39.2s1.3 7.1 3.9 9.5C7.3 50.9 10.3 52 14 52c3.5 0 6.4-1.4 8.7-4.2l.1-.1-2.9-3.5-.1.1c-1.9 1.8-3.9 2.8-6 2.8-2.2 0-4.1-.8-5.5-2.3-1.5-1.5-2.2-3.4-2.2-5.7 0-2.3.7-4.2 2.2-5.7 1.5-1.5 3.3-2.2 5.5-2.2 2.1 0 4.1 1 6 2.8l.1.1 2.9-3.5-.1.2z" clip-rule="evenodd"/><path fill="#32357F" fill-rule="evenodd" d="M4.9 29.7C2.3 32.1 1 35.2 1 39.2s1.3 7.1 3.9 9.5C7.3 50.9 10.3 52 14 52c3.5 0 6.4-1.4 8.7-4.2l.1-.1-2.9-3.5-.1.1c-1.9 1.8-3.9 2.8-6 2.8-2.2 0-4.1-.8-5.5-2.3-1.5-1.5-2.2-3.4-2.2-5.7 0-2.3.7-4.2 2.2-5.7 1.5-1.5 3.3-2.2 5.5-2.2 2.1 0 4.1 1 6 2.8l.1.1 2.7-3.3v-.2" clip-rule="evenodd"/><path fill="#E92F30" fill-rule="evenodd" d="M28.2 22.8c2-2 4.2-3.6 6.8-4.7 2.4-1.1 5-1.6 7.7-1.6s5.3.5 7.8 1.6 4.7 2.7 6.7 4.8l.1.2H63l-.2-.4c-2.3-3.2-5.3-5.9-8.9-7.7-3.6-2-7.3-3-11.2-3-3.9 0-7.7.9-11.3 2.8-3.6 1.9-6.6 4.5-8.9 7.8l-.2.4h5.8l.1-.2z" clip-rule="evenodd"/><path fill="#E92F30" fill-rule="evenodd" d="M28.2 22.8c2-2 4.2-3.6 6.8-4.7 2.4-1.1 5-1.6 7.7-1.6s5.3.5 7.8 1.6 4.7 2.7 6.7 4.8l.1.2H63l-.2-.4c-2.3-3.2-5.3-5.9-8.9-7.7-3.6-2-7.3-3-11.2-3-3.9 0-7.7.9-11.3 2.8-3.6 1.9-6.6 4.5-8.9 7.8l-.2.4h5.8l.1-.2z" clip-rule="evenodd"/><path fill="#FF3E48" fill-rule="evenodd" d="M28.2 22.8c2-2 4.2-3.6 6.8-4.7 2.4-1.1 5-1.6 7.7-1.6s5.3.5 7.8 1.6 4.7 2.7 6.7 4.8l.1.2H63l-.2-.4c-2.3-3.2-5.3-5.9-8.9-7.7-3.6-2-7.3-3-11.2-3-3.9 0-7.7.9-11.3 2.8-3.6 1.9-6.6 4.5-8.9 7.8l-.2.4h5.8l.1-.2z" clip-rule="evenodd"/><path fill="#E92F30" fill-rule="evenodd" d="M53.9 16.5c-3.6-1.9-7.3-2.8-11.3-2.8-3.9 0-7.7 1-11.3 2.8-3.1 1.6-5.7 3.5-7.9 6.5H28v-.2c2-2 4.2-3.6 6.8-4.7 2.4-1.1 5-1.6 7.7-1.6s5.3.5 7.8 1.6 4.7 2.7 6.7 4.8l.1.2h4.6c-2-3.1-4.7-5-7.8-6.6z" clip-rule="evenodd"/><path fill="#D3000B" fill-rule="evenodd" d="M28.1 23c2-2 4.3-3.8 6.8-4.9 2.4-1.1 5-1.6 7.7-1.6s5.3.5 7.8 1.6 4.7 2.7 6.7 4.8l.1.2h3.2c-1.9-2-4-3.6-6.4-4.9-3.6-1.9-7.3-2.8-11.3-2.8-3.9 0-7.7 1-11.3 2.8-2.4 1.3-4.6 2.9-6.4 4.9h3.1z" clip-rule="evenodd"/><path fill="#0A0E49" fill-rule="evenodd" d="M55 37.2V52h5V40.7c-2-1.4-3-2.5-5-3.5zM42.1 33.8c-.7 0-2.1 0-2.1.1v11.5c0 1.9.3 3.5 1.4 4.6 1 1.2 2.3 1.8 4 1.8 1.7 0 3.2-.3 4.5-1.1h.1v-.1l1.1-4.7-.3.2c-1.4.8-2.4 1.2-3.6 1.2-1.6 0-2.2-.9-2.2-2.8V33.9c-1-.1-1.9-.1-2.9-.1zM26 39.1V52h5V36.2c-2 .8-4 1.8-5 2.9zM14.6 51.9c3.2-.2 5.9-1.6 8-4.2l.1-.1-2.7-3.3c-2 2.3-3.8 4.8-5.4 7.6z" clip-rule="evenodd"/></svg>